# xmcd
#
# Track frame offsets:
#	150
#	13440
#	26800
#	37184
#	48621
#	63994
#	75341
#	88945
#	98895
#	110275
#	117269
#	126723
#	136190
#	149488
#	162607
#	172067
#	182449
#	195487
#	203421
#	212898
#
# Disc length: 2979 seconds
#
# Revision: 0
# Processed by: cddbd v1.5.2PL0 Copyright (c) Steve Scherf et al.
# Submitted via: EasyCDDAExtractor 15.2.5.1
#
DISCID=2c0ba114
DTITLE=Mina - The best of Mina
DYEAR=2011
DGENRE=Pop
TTITLE0=Il cielo in una stanza
TTITLE1=Tintarella di Luna
TTITLE2=Folle Banderuola
TTITLE3=Amorevole
TTITLE4=Una Zebra a pois
TTITLE5=Personalità
TTITLE6=E' vero
TTITLE7=Nessuno
TTITLE8=Non sei felice
TTITLE9=Rossetto sul colletto
TTITLE10=La febbre dell'hula hop
TTITLE11=T'ho vista piangere
TTITLE12=You are my destiny
TTITLE13=Malatia
TTITLE14=Non partir
TTITLE15=When
TTITLE16=Be Bop a Lula
TTITLE17=Passion flower
TTITLE18=Splish splash
TTITLE19=Julia
EXTD=
EXTT0=
EXTT1=
EXTT2=
EXTT3=
EXTT4=
EXTT5=
EXTT6=
EXTT7=
EXTT8=
EXTT9=
EXTT10=
EXTT11=
EXTT12=
EXTT13=
EXTT14=
EXTT15=
EXTT16=
EXTT17=
EXTT18=
EXTT19=
PLAYORDER=
